<svg width="11" height="11" viewBox="0 0 11 11" fill="none" xmlns="http://www.w3.org/2000/svg">
<g clip-path="url(#clip0_4_1448)">
<path d="M6.80128 5.88477C6.79158 5.8751 6.78389 5.8636 6.77863 5.85095C6.77338 5.83829 6.77068 5.82472 6.77068 5.81102C6.77068 5.79732 6.77338 5.78375 6.77863 5.7711C6.78389 5.75844 6.79158 5.74695 6.80128 5.73727L10.6609 1.87811C10.7781 1.76075 10.8438 1.60164 10.8437 1.43579C10.8436 1.26994 10.7776 1.11092 10.6602 0.99373C10.5429 0.876538 10.3838 0.810766 10.2179 0.810883C10.0521 0.811 9.89306 0.876997 9.77587 0.994355L5.9167 4.85186C5.90702 4.86156 5.89553 4.86925 5.88287 4.8745C5.87022 4.87976 5.85665 4.88246 5.84295 4.88246C5.82925 4.88246 5.81568 4.87976 5.80303 4.8745C5.79037 4.86925 5.77887 4.86156 5.7692 4.85186L1.91003 0.994355C1.852 0.9363 1.78311 0.890243 1.70728 0.858813C1.63145 0.827383 1.55018 0.811197 1.4681 0.811177C1.30232 0.811138 1.14332 0.876954 1.02607 0.994147C0.908826 1.11134 0.842935 1.27031 0.842896 1.43608C0.842856 1.60186 0.908673 1.76086 1.02587 1.87811L4.88462 5.73727C4.89432 5.74695 4.90201 5.75844 4.90726 5.7711C4.91252 5.78375 4.91522 5.79732 4.91522 5.81102C4.91522 5.82472 4.91252 5.83829 4.90726 5.85095C4.90201 5.8636 4.89432 5.8751 4.88462 5.88477L1.02587 9.74436C0.967837 9.80241 0.921812 9.87133 0.890418 9.94717C0.859024 10.023 0.842876 10.1043 0.842896 10.1864C0.842935 10.3522 0.908826 10.5111 1.02607 10.6283C1.08413 10.6863 1.15304 10.7324 1.22889 10.7638C1.30473 10.7952 1.38601 10.8113 1.4681 10.8113C1.63387 10.8112 1.79284 10.7454 1.91003 10.6281L5.7692 6.76852C5.77887 6.75882 5.79037 6.75112 5.80303 6.74587C5.81568 6.74062 5.82925 6.73792 5.84295 6.73792C5.85665 6.73792 5.87022 6.74062 5.88287 6.74587C5.89553 6.75112 5.90702 6.75882 5.9167 6.76852L9.77587 10.6281C9.89306 10.7454 10.052 10.8112 10.2178 10.8113C10.3836 10.8113 10.5426 10.7455 10.6598 10.6283C10.7771 10.5111 10.843 10.3522 10.843 10.1864C10.843 10.0206 10.7772 9.8616 10.66 9.74436L6.80128 5.88477Z" fill="#868696"/>
</g>
<defs>
<clipPath id="clip0_4_1448">
<rect width="10" height="10" fill="white" transform="translate(0.843018 0.809204)"/>
</clipPath>
</defs>
</svg>
