<svg width="25" height="19" viewBox="0 0 25 19" fill="none" xmlns="http://www.w3.org/2000/svg">
<rect x="0.0620117" y="0.101196" width="3.90976" height="3.71158" fill="#EDFAFF"/>
<rect x="7.07397" y="0.101196" width="3.90976" height="3.71158" fill="#EDFAFF"/>
<rect x="14.0857" y="0.101196" width="3.90976" height="3.71158" fill="#EDFAFF"/>
<rect x="21.0974" y="0.101196" width="3.90976" height="3.71158" fill="#EDFAFF"/>
<rect x="0.0620117" y="5.07739" width="3.90976" height="3.71158" fill="#EDFAFF"/>
<rect x="7.07397" y="5.07739" width="3.90976" height="3.71158" fill="#EDFAFF"/>
<rect x="14.0857" y="5.07739" width="3.90976" height="3.71158" fill="#EDFAFF"/>
<rect x="21.0974" y="5.07739" width="3.90976" height="3.71158" fill="#EDFAFF"/>
<rect x="0.0620117" y="10.054" width="3.90976" height="3.71158" fill="#EDFAFF"/>
<rect x="7.07397" y="10.054" width="3.90976" height="3.71158" fill="#EDFAFF"/>
<rect x="14.0857" y="10.054" width="3.90976" height="3.71158" fill="#EDFAFF"/>
<rect x="21.0974" y="10.054" width="3.90976" height="3.71158" fill="#EDFAFF"/>
<rect x="0.0620117" y="15.0305" width="3.90976" height="3.71158" fill="#EDFAFF"/>
<rect x="7.07397" y="15.0305" width="3.90976" height="3.71158" fill="#EDFAFF"/>
<rect x="14.0857" y="15.0305" width="3.90976" height="3.71158" fill="#EDFAFF"/>
<rect x="21.0974" y="15.0305" width="3.90976" height="3.71158" fill="#EDFAFF"/>
</svg>
