<svg width="39" height="38" viewBox="0 0 39 38" fill="none" xmlns="http://www.w3.org/2000/svg">
<g id="bx:bxs-star">
<path id="Vector" d="M35.446 14.5486C35.3471 14.2572 35.165 14.0012 34.9223 13.8121C34.6795 13.623 34.3867 13.5092 34.08 13.4846L25.1076 12.7717L21.2249 4.17703C21.1013 3.90021 20.9002 3.6651 20.6458 3.50006C20.3915 3.33502 20.0949 3.24711 19.7917 3.24695C19.4885 3.24678 19.1918 3.33436 18.9373 3.49912C18.6828 3.66388 18.4814 3.89877 18.3574 4.17546L14.4748 12.7717L5.50239 13.4846C5.20094 13.5085 4.91274 13.6188 4.67229 13.8021C4.43183 13.9855 4.2493 14.2343 4.14653 14.5187C4.04376 14.8031 4.0251 15.1111 4.09279 15.4058C4.16047 15.7006 4.31164 15.9695 4.52819 16.1806L11.1587 22.6443L8.81373 32.7987C8.74252 33.106 8.76534 33.4277 8.87923 33.7219C8.99311 34.0162 9.19281 34.2694 9.45239 34.4487C9.71197 34.6281 10.0195 34.7252 10.335 34.7276C10.6505 34.73 10.9594 34.6376 11.2217 34.4622L19.7912 28.7492L28.3607 34.4622C28.6287 34.6402 28.9449 34.7318 29.2666 34.7248C29.5883 34.7177 29.9002 34.6123 30.1602 34.4227C30.4202 34.2332 30.6159 33.9685 30.721 33.6644C30.8262 33.3603 30.8356 33.0312 30.7482 32.7215L27.8696 22.649L35.0085 16.2247C35.4759 15.8029 35.6475 15.145 35.446 14.5486Z" fill="#F3CD03"/>
</g>
</svg>
