<svg width="253" height="94" viewBox="0 0 253 94" fill="none" xmlns="http://www.w3.org/2000/svg">
<g filter="url(#filter0_d_688_2200)">
<rect x="4" width="245" height="88" rx="10" fill="white"/>
<rect x="4.5" y="0.5" width="244" height="87" rx="9.5" stroke="#BDBDBD"/>
<g clip-path="url(#clip0_688_2200)">
<path d="M50.9614 43.1894L57.2233 36.9468L36.9976 25.6144C35.6572 24.8924 34.4014 24.7911 33.3002 25.5806L50.9614 43.1894ZM58.2906 50.4981L64.8002 46.8479C66.0708 46.1386 66.7675 45.1337 66.7675 44.0191C66.7675 42.9065 66.0708 41.8995 64.8023 41.1902L58.9089 37.8905L52.2744 44.5025L58.2906 50.4981ZM32.2118 27.1154C32.0762 27.5313 32 27.9957 32 28.5045V59.5484C32 60.3527 32.1779 61.0452 32.4998 61.5962L49.6464 44.5004L32.2118 27.1154ZM50.9614 45.8093L33.9101 62.8101C34.2362 62.9346 34.5878 63.0001 34.9584 63.0001C35.6191 63.0001 36.3073 62.8058 37.0082 62.4174L56.6071 51.446L50.9614 45.8093Z" fill="#252B42"/>
</g>
<path d="M96.662 24.214C98.4073 24.214 99.7467 24.6433 100.68 25.502C101.613 26.3513 102.08 27.5367 102.08 29.058C102.08 30.5793 101.623 31.7833 100.708 32.67C99.8027 33.5567 98.4167 34 96.55 34H93.204V24.214H96.662ZM96.774 32.068C97.7727 32.068 98.538 31.816 99.07 31.312C99.6113 30.808 99.882 30.0753 99.882 29.114C99.882 28.1527 99.6113 27.4153 99.07 26.902C98.538 26.3793 97.7167 26.118 96.606 26.118H95.388V32.068H96.774ZM105.634 30.234C105.634 30.85 105.806 31.354 106.152 31.746C106.506 32.1287 106.954 32.32 107.496 32.32C108.046 32.32 108.494 32.1287 108.84 31.746C109.194 31.354 109.372 30.85 109.372 30.234C109.372 29.618 109.194 29.114 108.84 28.722C108.494 28.33 108.046 28.134 107.496 28.134C106.954 28.134 106.506 28.33 106.152 28.722C105.806 29.114 105.634 29.618 105.634 30.234ZM111.486 30.234C111.486 31.326 111.108 32.2453 110.352 32.992C109.596 33.7387 108.644 34.112 107.496 34.112C106.357 34.112 105.41 33.7387 104.654 32.992C103.898 32.2453 103.52 31.326 103.52 30.234C103.52 29.142 103.898 28.2227 104.654 27.476C105.41 26.72 106.357 26.342 107.496 26.342C108.644 26.342 109.596 26.72 110.352 27.476C111.108 28.2227 111.486 29.142 111.486 30.234ZM117.029 34H114.859L112.297 26.468H114.467L115.937 31.018L117.407 26.468H119.437L120.907 31.018L122.377 26.468H124.561L121.999 34H119.815L118.429 29.898L117.029 34ZM128.042 29.8V34H125.942V26.468H128.042V27.308C128.676 26.664 129.39 26.342 130.184 26.342C130.977 26.342 131.64 26.622 132.172 27.182C132.713 27.742 132.984 28.4887 132.984 29.422V34H130.884V29.744C130.884 28.5867 130.459 28.008 129.61 28.008C129.19 28.008 128.821 28.162 128.504 28.47C128.196 28.7687 128.042 29.212 128.042 29.8ZM137.183 34H135.083V23.612H137.183V34ZM141.051 30.234C141.051 30.85 141.224 31.354 141.569 31.746C141.924 32.1287 142.372 32.32 142.913 32.32C143.464 32.32 143.912 32.1287 144.257 31.746C144.612 31.354 144.789 30.85 144.789 30.234C144.789 29.618 144.612 29.114 144.257 28.722C143.912 28.33 143.464 28.134 142.913 28.134C142.372 28.134 141.924 28.33 141.569 28.722C141.224 29.114 141.051 29.618 141.051 30.234ZM146.903 30.234C146.903 31.326 146.525 32.2453 145.769 32.992C145.013 33.7387 144.061 34.112 142.913 34.112C141.774 34.112 140.827 33.7387 140.071 32.992C139.315 32.2453 138.937 31.326 138.937 30.234C138.937 29.142 139.315 28.2227 140.071 27.476C140.827 26.72 141.774 26.342 142.913 26.342C144.061 26.342 145.013 26.72 145.769 27.476C146.525 28.2227 146.903 29.142 146.903 30.234ZM155.061 34H153.087V33.09C152.545 33.7713 151.873 34.112 151.071 34.112C150.277 34.112 149.61 33.8833 149.069 33.426C148.527 32.9593 148.257 32.3433 148.257 31.578C148.257 30.8033 148.537 30.2247 149.097 29.842C149.657 29.4593 150.422 29.268 151.393 29.268H152.961V29.226C152.961 28.4233 152.536 28.022 151.687 28.022C151.323 28.022 150.935 28.0967 150.525 28.246C150.123 28.386 149.783 28.5633 149.503 28.778L148.565 27.42C149.554 26.7013 150.683 26.342 151.953 26.342C152.867 26.342 153.614 26.5707 154.193 27.028C154.771 27.4853 155.061 28.2087 155.061 29.198V34ZM152.947 31.13V30.766H151.631C150.791 30.766 150.371 31.0273 150.371 31.55C150.371 31.8207 150.469 32.0307 150.665 32.18C150.87 32.32 151.159 32.39 151.533 32.39C151.906 32.39 152.233 32.278 152.513 32.054C152.802 31.8207 152.947 31.5127 152.947 31.13ZM160.185 34.112C159.299 34.112 158.505 33.734 157.805 32.978C157.105 32.222 156.755 31.284 156.755 30.164C156.755 29.044 157.096 28.1293 157.777 27.42C158.459 26.7013 159.257 26.342 160.171 26.342C161.086 26.342 161.833 26.664 162.411 27.308V23.612H164.511V34H162.411V33.006C161.823 33.7433 161.081 34.112 160.185 34.112ZM158.869 30.248C158.869 30.8547 159.051 31.354 159.415 31.746C159.779 32.1287 160.204 32.32 160.689 32.32C161.175 32.32 161.585 32.1287 161.921 31.746C162.267 31.354 162.439 30.8547 162.439 30.248C162.439 29.632 162.267 29.1233 161.921 28.722C161.585 28.3113 161.17 28.106 160.675 28.106C160.181 28.106 159.756 28.3113 159.401 28.722C159.047 29.1327 158.869 29.6413 158.869 30.248ZM172.271 30.234C172.271 30.85 172.444 31.354 172.789 31.746C173.144 32.1287 173.592 32.32 174.133 32.32C174.684 32.32 175.132 32.1287 175.477 31.746C175.832 31.354 176.009 30.85 176.009 30.234C176.009 29.618 175.832 29.114 175.477 28.722C175.132 28.33 174.684 28.134 174.133 28.134C173.592 28.134 173.144 28.33 172.789 28.722C172.444 29.114 172.271 29.618 172.271 30.234ZM178.123 30.234C178.123 31.326 177.745 32.2453 176.989 32.992C176.233 33.7387 175.281 34.112 174.133 34.112C172.994 34.112 172.047 33.7387 171.291 32.992C170.535 32.2453 170.157 31.326 170.157 30.234C170.157 29.142 170.535 28.2227 171.291 27.476C172.047 26.72 172.994 26.342 174.133 26.342C175.281 26.342 176.233 26.72 176.989 27.476C177.745 28.2227 178.123 29.142 178.123 30.234ZM181.983 29.8V34H179.883V26.468H181.983V27.308C182.617 26.664 183.331 26.342 184.125 26.342C184.918 26.342 185.581 26.622 186.113 27.182C186.654 27.742 186.925 28.4887 186.925 29.422V34H184.825V29.744C184.825 28.5867 184.4 28.008 183.551 28.008C183.131 28.008 182.762 28.162 182.445 28.47C182.137 28.7687 181.983 29.212 181.983 29.8ZM195.421 27.98V31.354C195.421 31.6433 195.496 31.872 195.645 32.04C195.795 32.1987 195.972 32.278 196.177 32.278C196.569 32.278 196.901 32.1007 197.171 31.746L197.955 33.216C197.302 33.8133 196.611 34.112 195.883 34.112C195.165 34.112 194.553 33.874 194.049 33.398C193.555 32.922 193.307 32.2733 193.307 31.452V27.98H192.425V26.468H193.307V24.214H195.421V26.468H197.241V27.98H195.421ZM201.381 29.94V34H199.281V23.612H201.381V27.308C202.016 26.664 202.725 26.342 203.509 26.342C204.303 26.342 204.97 26.622 205.511 27.182C206.053 27.742 206.323 28.4887 206.323 29.422V34H204.223V29.884C204.223 28.7267 203.799 28.148 202.949 28.148C202.529 28.148 202.161 28.302 201.843 28.61C201.535 28.9087 201.381 29.352 201.381 29.94ZM214.947 32.908C214.098 33.7107 213.099 34.112 211.951 34.112C210.812 34.112 209.87 33.762 209.123 33.062C208.376 32.3527 208.003 31.4053 208.003 30.22C208.003 29.0347 208.381 28.092 209.137 27.392C209.902 26.692 210.803 26.342 211.839 26.342C212.875 26.342 213.752 26.6547 214.471 27.28C215.199 27.9053 215.563 28.764 215.563 29.856V30.976H210.075C210.14 31.3867 210.355 31.7227 210.719 31.984C211.083 32.2453 211.494 32.376 211.951 32.376C212.688 32.376 213.295 32.1287 213.771 31.634L214.947 32.908ZM213.435 29.478C213.388 29.03 213.22 28.6847 212.931 28.442C212.642 28.1993 212.287 28.078 211.867 28.078C211.456 28.078 211.078 28.204 210.733 28.456C210.388 28.708 210.187 29.0487 210.131 29.478H213.435Z" fill="#252B42"/>
<path d="M103.8 59.48C102.8 60.12 101.7 60.38 100.52 60.38C97.3 60.38 94.96 58.08 94.96 55C94.96 51.88 97.3 49.62 100.54 49.62C102.12 49.62 103.44 50.12 104.6 51.24L105.84 50C104.56 48.58 102.68 47.84 100.46 47.84C96.12 47.84 92.96 50.86 92.96 55C92.96 59.14 96.12 62.16 100.42 62.16C102.38 62.16 104.32 61.56 105.72 60.38V54.92H103.8V59.48ZM114.009 62.12C117.189 62.12 119.509 59.86 119.509 56.7C119.509 53.54 117.189 51.3 114.009 51.3C110.829 51.3 108.489 53.54 108.489 56.7C108.489 59.86 110.829 62.12 114.009 62.12ZM114.009 60.44C111.969 60.44 110.429 58.96 110.429 56.7C110.429 54.44 111.969 52.98 114.009 52.98C116.049 52.98 117.569 54.44 117.569 56.7C117.569 58.96 116.049 60.44 114.009 60.44ZM126.905 62.12C130.085 62.12 132.405 59.86 132.405 56.7C132.405 53.54 130.085 51.3 126.905 51.3C123.725 51.3 121.385 53.54 121.385 56.7C121.385 59.86 123.725 62.12 126.905 62.12ZM126.905 60.44C124.865 60.44 123.325 58.96 123.325 56.7C123.325 54.44 124.865 52.98 126.905 52.98C128.945 52.98 130.465 54.44 130.465 56.7C130.465 58.96 128.945 60.44 126.905 60.44ZM143.58 51.4V53.04C142.68 51.88 141.24 51.3 139.66 51.3C136.6 51.3 134.28 53.36 134.28 56.42C134.28 59.48 136.6 61.56 139.66 61.56C141.18 61.56 142.56 61.02 143.48 59.92V60.76C143.48 63.16 142.34 64.32 139.84 64.32C138.28 64.32 136.74 63.78 135.76 62.94L134.84 64.42C136 65.46 137.96 66 139.9 66C143.5 66 145.4 64.3 145.4 60.56V51.4H143.58ZM139.88 59.88C137.74 59.88 136.22 58.46 136.22 56.42C136.22 54.36 137.74 52.98 139.88 52.98C142 52.98 143.52 54.36 143.52 56.42C143.52 58.46 142 59.88 139.88 59.88ZM149.268 62H151.188V47.16H149.268V62ZM164.634 56.76C164.634 53.5 162.454 51.3 159.394 51.3C156.334 51.3 154.074 53.56 154.074 56.7C154.074 59.86 156.354 62.12 159.774 62.12C161.534 62.12 162.994 61.52 163.954 60.4L162.894 59.16C162.114 60.02 161.074 60.44 159.834 60.44C157.734 60.44 156.234 59.2 155.994 57.34H164.594C164.614 57.16 164.634 56.92 164.634 56.76ZM159.394 52.92C161.254 52.92 162.594 54.18 162.794 55.96H155.994C156.194 54.16 157.554 52.92 159.394 52.92ZM178.812 48H173.352V62H175.352V57.76H178.812C182.452 57.76 184.652 55.92 184.652 52.88C184.652 49.84 182.452 48 178.812 48ZM178.752 56.02H175.352V49.74H178.752C181.312 49.74 182.652 50.88 182.652 52.88C182.652 54.88 181.312 56.02 178.752 56.02ZM187.705 62H189.625V47.16H187.705V62ZM197.351 51.3C195.651 51.3 194.071 51.78 192.971 52.66L193.771 54.1C194.591 53.4 195.871 52.96 197.131 52.96C199.031 52.96 199.971 53.9 199.971 55.52V55.9H196.931C193.771 55.9 192.671 57.3 192.671 59C192.671 60.84 194.191 62.12 196.591 62.12C198.251 62.12 199.431 61.56 200.071 60.6V62H201.891V55.6C201.891 52.7 200.251 51.3 197.351 51.3ZM196.911 60.64C195.451 60.64 194.571 59.98 194.571 58.92C194.571 58.02 195.111 57.28 197.011 57.28H199.971V58.76C199.491 59.98 198.351 60.64 196.911 60.64ZM212.949 51.4L209.289 59.88L205.589 51.4H203.589L208.269 61.98L207.929 62.72C207.409 63.94 206.829 64.36 205.909 64.36C205.189 64.36 204.529 64.08 204.009 63.58L203.189 65.02C203.849 65.66 204.889 66 205.909 66C207.529 66 208.749 65.3 209.689 63.06L214.829 51.4H212.949Z" fill="#252B42"/>
</g>
<defs>
<filter id="filter0_d_688_2200" x="0" y="-2" width="253" height="96" filterUnits="userSpaceOnUse" color-interpolation-filters="sRGB">
<feFlood flood-opacity="0" result="BackgroundImageFix"/>
<feColorMatrix in="SourceAlpha" type="matrix" values="0 0 0 0 0 0 0 0 0 0 0 0 0 0 0 0 0 0 127 0" result="hardAlpha"/>
<feOffset dy="2"/>
<feGaussianBlur stdDeviation="2"/>
<feColorMatrix type="matrix" values="0 0 0 0 0 0 0 0 0 0 0 0 0 0 0 0 0 0 0.1 0"/>
<feBlend mode="normal" in2="BackgroundImageFix" result="effect1_dropShadow_688_2200"/>
<feBlend mode="normal" in="SourceGraphic" in2="effect1_dropShadow_688_2200" result="shape"/>
</filter>
<clipPath id="clip0_688_2200">
<rect width="35" height="38.0001" fill="white" transform="translate(32 25)"/>
</clipPath>
</defs>
</svg>
