<svg width="69" height="94" viewBox="0 0 69 94" fill="none" xmlns="http://www.w3.org/2000/svg">
<path d="M0.208496 93.8601C0.208496 93.8601 6.89739 61.0282 35.6829 61.0282C64.4684 61.0282 68.2257 93.8601 68.2257 93.8601H0.208496Z" fill="#C15252"/>
<path d="M14.7972 37.4245C17.7464 37.4245 20.1373 35.0337 20.1373 32.0845C20.1373 29.1352 17.7464 26.7444 14.7972 26.7444C11.8479 26.7444 9.45709 29.1352 9.45709 32.0845C9.45709 35.0337 11.8479 37.4245 14.7972 37.4245Z" fill="#CE8282"/>
<path d="M54.4553 37.4245C57.4045 37.4245 59.7954 35.0337 59.7954 32.0845C59.7954 29.1352 57.4045 26.7444 54.4553 26.7444C51.506 26.7444 49.1152 29.1352 49.1152 32.0845C49.1152 35.0337 51.506 37.4245 54.4553 37.4245Z" fill="#CE8282"/>
<path d="M41.5251 51.4629L40.6168 39.5991L31.3542 40.8722L29.8403 58.2137C32.1503 57.9628 34.3826 57.2328 36.3945 56.0704C38.4065 54.908 40.1539 53.3388 41.5251 51.4629Z" fill="#D19582"/>
<path d="M16.2972 26.999C16.1422 29.1768 16.2323 31.365 16.5656 33.5227C17.185 39.1243 19.8619 44.0033 24.9473 46.7146C30.0328 49.426 36.9969 50.4031 42.4196 48.1666C44.466 47.3706 46.3294 46.1673 47.8968 44.6295C49.4641 43.0917 50.7028 41.2515 51.5376 39.2206C53.4301 34.4792 53.4507 28.4166 53.1961 23.3036C52.2533 4.34495 36.8111 4.6271 36.8111 4.6271C36.8111 4.6271 16.2147 3.00995 16.2972 26.999Z" fill="#F2C4B3"/>
<path d="M29.8403 58.2206L29.1522 65.8522C29.1522 65.8522 29.4205 69.6715 35.6002 70.394C41.7798 71.1166 42.4817 64.6755 42.4817 64.6755L41.5252 51.4629C40.1546 53.3401 38.4075 54.9106 36.3955 56.0742C34.3835 57.2378 32.1509 57.9688 29.8403 58.2206Z" fill="#F2C4B3"/>
<path d="M27.2255 30.8183C27.2255 31.8643 26.7988 32.7107 26.2758 32.7107C25.7528 32.7107 25.3262 31.8643 25.3262 30.8183C25.3262 29.7723 25.7528 28.9189 26.2758 28.9189C26.7988 28.9189 27.2255 29.7654 27.2255 30.8183Z" fill="#373C44"/>
<path d="M44.7871 31.1348C44.7871 32.1808 44.3604 33.0341 43.8374 33.0341C43.3144 33.0341 42.8878 32.1808 42.8878 31.1348C42.8878 30.0888 43.3144 29.2424 43.8374 29.2424C44.3604 29.2424 44.7871 30.0888 44.7871 31.1348Z" fill="#373C44"/>
<path d="M34.9192 32.0844C34.5408 32.3253 34.1692 32.5524 33.8182 32.7726C33.4673 32.9928 33.1301 33.3094 33.1301 33.5365C33.1301 33.6259 33.1713 33.736 33.3296 33.8736C33.4612 34.0014 33.6184 34.0999 33.7907 34.1627C34.1904 34.2495 34.6083 34.1753 34.9537 33.9562C34.821 34.1607 34.6346 34.3247 34.4149 34.4303C34.1952 34.5359 33.9507 34.579 33.7081 34.5549C33.455 34.5158 33.2172 34.4088 33.02 34.2453C32.8959 34.162 32.7945 34.0493 32.7248 33.9171C32.6552 33.785 32.6194 33.6376 32.6208 33.4883C32.6733 33.2106 32.8311 32.964 33.0613 32.8001C33.2445 32.6535 33.4457 32.531 33.6599 32.4354C34.0584 32.2523 34.4835 32.1338 34.9192 32.0844Z" fill="#373C44"/>
<path d="M32.2833 36.5299C32.6938 36.8005 33.1293 37.0309 33.5838 37.2181C34.0183 37.4112 34.4852 37.521 34.9602 37.5415C35.4194 37.5696 35.8784 37.482 36.2952 37.2869C36.7371 37.0787 37.1548 36.8225 37.5407 36.5231C37.4057 36.741 37.2538 36.9481 37.0866 37.1424C36.909 37.3372 36.7052 37.5063 36.481 37.6448C36.0237 37.9418 35.4841 38.0863 34.9395 38.0576C34.4096 38.0224 33.8947 37.8665 33.4343 37.6017C32.9739 37.3369 32.5802 36.9703 32.2833 36.5299Z" fill="#373C44"/>
<path d="M26.6198 36.6194C26.6198 37.0141 26.5028 37.3999 26.2835 37.7281C26.0642 38.0563 25.7525 38.3121 25.3878 38.4631C25.0232 38.6142 24.6219 38.6537 24.2348 38.5767C23.8477 38.4997 23.4921 38.3096 23.213 38.0305C22.9339 37.7514 22.7439 37.3958 22.6669 37.0087C22.5899 36.6216 22.6294 36.2204 22.7804 35.8557C22.9315 35.491 23.1873 35.1794 23.5155 34.9601C23.8436 34.7408 24.2295 34.6237 24.6242 34.6237C25.1535 34.6237 25.661 34.834 26.0353 35.2083C26.4096 35.5825 26.6198 36.0901 26.6198 36.6194Z" fill="#CE8282"/>
<path d="M46.769 36.2203C46.7759 36.6169 46.6643 37.0066 46.4486 37.3396C46.2329 37.6726 45.9229 37.9337 45.5581 38.0897C45.1932 38.2456 44.7902 38.2893 44.4005 38.2151C44.0107 38.1409 43.652 37.9522 43.37 37.6731C43.088 37.3941 42.8955 37.0373 42.8173 36.6483C42.739 36.2594 42.7784 35.8559 42.9305 35.4895C43.0826 35.1231 43.3405 34.8103 43.6712 34.5911C44.0019 34.372 44.3904 34.2563 44.7872 34.259C45.3081 34.2625 45.8071 34.4697 46.1774 34.8361C46.5477 35.2026 46.7601 35.6993 46.769 36.2203Z" fill="#CE8282"/>
<path d="M41.7524 25.953C41.9943 25.4578 42.373 25.0423 42.8438 24.7556C43.3146 24.469 43.8577 24.3233 44.4087 24.3359C44.9645 24.3628 45.5034 24.5361 45.9708 24.8382C46.1929 24.9858 46.4023 25.1515 46.597 25.3337C46.7731 25.5276 46.9341 25.7347 47.0787 25.953C46.8379 25.8498 46.6177 25.7191 46.3906 25.6089C46.1635 25.4988 45.9433 25.3956 45.7024 25.313C45.2772 25.1411 44.8256 25.0433 44.3674 25.024C43.9113 25.0047 43.4564 25.0821 43.0324 25.2511C42.5795 25.4338 42.1499 25.6694 41.7524 25.953Z" fill="#373C44"/>
<path d="M22.7112 25.953C22.953 25.4578 23.3318 25.0423 23.8026 24.7556C24.2734 24.469 24.8164 24.3233 25.3675 24.3359C25.9233 24.3628 26.4622 24.5361 26.9295 24.8382C27.1516 24.9858 27.3611 25.1515 27.5558 25.3337C27.7298 25.5294 27.8906 25.7362 28.0375 25.953C27.7897 25.8498 27.5764 25.7191 27.3493 25.6089C27.1222 25.4988 26.902 25.3956 26.6612 25.313C26.2359 25.1411 25.7844 25.0433 25.3261 25.024C24.8701 25.0047 24.4151 25.0821 23.9912 25.2511C23.5383 25.4338 23.1086 25.6694 22.7112 25.953Z" fill="#373C44"/>
<path d="M16.2972 26.999C16.2972 27.233 18.8641 15.6101 22.1672 14.0067C20.667 16.8075 20.1028 17.2066 20.1028 17.2066C20.1028 17.2066 25.2364 16.6079 27.1907 13.0776C27.3253 13.71 27.3094 14.3651 27.1445 14.9903C26.9795 15.6154 26.6701 16.193 26.2411 16.6767C26.2411 16.6767 35.5312 21.4594 41.4906 15.1765C41.7839 15.7136 41.9376 16.3159 41.9376 16.9279C41.9376 17.5399 41.7839 18.1421 41.4906 18.6792C41.4906 18.6792 47.2298 18.6792 48.3722 14.977C50.7117 18.5581 52.3769 22.5368 53.2855 26.7169C53.2855 26.7169 55.6184 4.17292 35.8271 4.5514C15.5403 4.9643 16.5725 23.3656 16.2972 26.999Z" fill="#373C44"/>
<path d="M37.5132 5.0331C37.5132 5.0331 36.4328 1.17945 37.8091 0.828489C39.1855 0.47753 38.0844 5.0331 38.0844 5.0331C38.0844 5.0331 39.0479 1.11061 39.9425 2.14285C40.8371 3.17508 39.3437 6.47823 37.5132 5.0331Z" fill="#373C44"/>
</svg>
