<svg width="39" height="38" viewBox="0 0 39 38" fill="none" xmlns="http://www.w3.org/2000/svg">
<g id="bx:bx-star">
<path id="Vector" d="M10.7035 22.6446L8.35851 32.799C8.2859 33.1065 8.3077 33.4287 8.42106 33.7236C8.53443 34.0185 8.73409 34.2723 8.99398 34.452C9.25386 34.6316 9.56188 34.7288 9.87781 34.7306C10.1937 34.7325 10.5029 34.6391 10.7649 34.4625L19.3344 28.7495L27.9039 34.4625C28.172 34.6405 28.4881 34.7321 28.8098 34.7251C29.1315 34.718 29.4434 34.6126 29.7034 34.423C29.9634 34.2335 30.1591 33.9688 30.2643 33.6647C30.3694 33.3606 30.3788 33.0315 30.2914 32.7219L27.4128 22.6494L34.5517 16.225C34.7804 16.0191 34.9437 15.7507 35.0214 15.453C35.0991 15.1554 35.0879 14.8414 34.9891 14.55C34.8903 14.2587 34.7083 14.0026 34.4655 13.8136C34.2227 13.6246 33.9299 13.5109 33.6232 13.4865L24.6508 12.772L20.7681 4.17734C20.6443 3.90059 20.4431 3.66559 20.1887 3.50069C19.9343 3.33579 19.6376 3.24805 19.3344 3.24805C19.0312 3.24805 18.7345 3.33579 18.4801 3.50069C18.2257 3.66559 18.0244 3.90059 17.9006 4.17734L14.018 12.772L5.04561 13.485C4.74415 13.5088 4.45595 13.6191 4.2155 13.8024C3.97504 13.9858 3.79251 14.2346 3.68974 14.519C3.58697 14.8034 3.56831 15.1114 3.636 15.4061C3.70369 15.7009 3.85485 15.9699 4.07141 16.1809L10.7035 22.6446ZM15.1936 15.8363C15.4746 15.8141 15.7444 15.7168 15.9747 15.5546C16.2051 15.3923 16.3876 15.171 16.5031 14.914L19.3344 8.64859L22.1657 14.914C22.2812 15.171 22.4637 15.3923 22.694 15.5546C22.9244 15.7168 23.1942 15.8141 23.4751 15.8363L29.7264 16.332L24.5784 20.9654C24.1314 21.3683 23.9536 21.9883 24.1173 22.5675L26.0893 29.4688L20.2094 25.5483C19.9514 25.3751 19.6476 25.2826 19.3368 25.2826C19.0259 25.2826 18.7221 25.3751 18.4641 25.5483L12.3198 29.645L13.9724 22.4904C14.0329 22.2273 14.0248 21.953 13.9487 21.6939C13.8727 21.4348 13.7312 21.1996 13.538 21.011L8.75669 16.3493L15.1936 15.8363Z" fill="#F3CD03"/>
</g>
</svg>
